<svg width="26" height="23" viewBox="0 0 26 23" fill="none" xmlns="http://www.w3.org/2000/svg">
<path d="M13.5164 0.368074C13.3667 0.251348 13.1822 0.187958 12.9924 0.187958C12.8026 0.187958 12.6182 0.251348 12.4684 0.368074L0.34375 9.82229L1.39253 11.1487L2.875 9.99273V20.4375C2.87589 20.8848 3.05397 21.3135 3.37024 21.6298C3.68652 21.946 4.11522 22.1241 4.5625 22.125H21.4375C21.8848 22.1241 22.3135 21.946 22.6298 21.6298C22.946 21.3135 23.1241 20.8848 23.125 20.4375V10.0003L24.6075 11.1563L25.6562 9.82989L13.5164 0.368074ZM14.6875 20.4375H11.3125V13.6875H14.6875V20.4375ZM16.375 20.4375V13.6875C16.3746 13.2401 16.1966 12.8111 15.8802 12.4948C15.5639 12.1784 15.1349 12.0005 14.6875 12H11.3125C10.8651 12.0005 10.4361 12.1784 10.1198 12.4948C9.80338 12.8111 9.62545 13.2401 9.625 13.6875V20.4375H4.5625V8.67732L13 2.10451L21.4375 8.68576V20.4375H16.375Z" fill="black"/>
</svg>
