<svg width="20" height="28" viewBox="0 0 20 28" fill="none" xmlns="http://www.w3.org/2000/svg">
<path d="M16.75 0.5C17.4661 0.5 18.1529 0.784464 18.6592 1.29081C19.1656 1.79716 19.45 2.48392 19.45 3.2V24.8C19.45 25.5161 19.1656 26.2028 18.6592 26.7092C18.1529 27.2155 17.4661 27.5 16.75 27.5H3.25005C2.53396 27.5 1.84721 27.2155 1.34086 26.7092C0.834512 26.2028 0.550049 25.5161 0.550049 24.8V3.2C0.550049 2.48392 0.834512 1.79716 1.34086 1.29081C1.84721 0.784464 2.53396 0.5 3.25005 0.5L16.75 0.5ZM17.56 21.2738H2.44005V24.8C2.44005 25.0148 2.52539 25.2209 2.67729 25.3728C2.8292 25.5247 3.03522 25.61 3.25005 25.61H16.75C16.9649 25.61 17.1709 25.5247 17.3228 25.3728C17.4747 25.2209 17.56 25.0148 17.56 24.8V21.2738ZM10 22.1C10.3581 22.1 10.7015 22.2422 10.9546 22.4954C11.2078 22.7486 11.35 23.092 11.35 23.45C11.35 23.808 11.2078 24.1514 10.9546 24.4046C10.7015 24.6578 10.3581 24.8 10 24.8C9.64201 24.8 9.29863 24.6578 9.04546 24.4046C8.79228 24.1514 8.65005 23.808 8.65005 23.45C8.65005 23.092 8.79228 22.7486 9.04546 22.4954C9.29863 22.2422 9.64201 22.1 10 22.1ZM16.75 2.39H3.25005C3.03522 2.39 2.8292 2.47534 2.67729 2.62724C2.52539 2.77915 2.44005 2.98517 2.44005 3.2V19.3838H17.56V3.2C17.56 2.98517 17.4747 2.77915 17.3228 2.62724C17.1709 2.47534 16.9649 2.39 16.75 2.39Z" fill="black"/>
</svg>
